<svg width="82" height="82" viewBox="0 0 82 82" fill="none" xmlns="http://www.w3.org/2000/svg">
<path fill-rule="evenodd" clip-rule="evenodd" d="M48.607 52.4907C48.8045 52.3976 49.027 52.3716 49.2406 52.4168L56.6937 53.9941C57.0459 54.0687 57.3309 54.3268 57.4398 54.6699C57.5487 55.0131 57.4648 55.3883 57.2201 55.6523L48.607 64.9444C48.4265 65.1392 48.176 65.2541 47.9106 65.264C47.6453 65.2738 47.387 65.1777 47.1926 64.9969L40.562 58.8303L40.5104 58.7823L39.8275 58.1473C39.5845 57.9212 39.4694 57.5893 39.5204 57.2613C39.5714 56.9334 39.7818 56.6521 40.0821 56.5105L48.607 52.4907ZM49.1557 54.4432L42.2717 57.6892L47.8211 62.8502L54.5547 55.5858L49.1557 54.4432Z" fill="black"/>
<path fill-rule="evenodd" clip-rule="evenodd" d="M38.62 0H43.3758L44.347 10.4097L44.3486 10.427H37.6515L37.6532 10.4092L38.3179 3.25189L38.62 0ZM40.4428 2L39.8459 8.42697H42.1533L41.5537 2H40.4428Z" fill="black"/>
<path fill-rule="evenodd" clip-rule="evenodd" d="M40.535 1.02674L39.8459 8.42697H42.1533L41.4666 1.03473L42.6675 1.14753C44.4538 1.31533 46.4268 1.74301 48.5102 2.59867L49.0202 2.80811L49.4504 5.26367C50.8289 5.8526 52.1335 6.58398 53.3273 7.44806C58.7584 11.3602 61.5511 17.34 61.5511 23.2387V24.2387H20.4519V23.2387C20.4519 20.8783 20.8793 18.514 21.7697 16.2596C23.5731 11.6749 27.3332 7.52411 32.4967 5.26304L32.9833 2.85991L33.4034 2.63878L33.8692 3.5237C33.4034 2.63878 33.4034 2.63878 33.4034 2.63878L33.4057 2.63757L33.4088 2.63595L33.4174 2.63149L33.4441 2.61789C33.4661 2.60681 33.4965 2.59178 33.5349 2.57328C33.6118 2.5363 33.7212 2.48544 33.8615 2.4247C34.1418 2.30325 34.5458 2.14199 35.0593 1.97297C36.0854 1.63519 37.5541 1.26458 39.3495 1.12133L40.535 1.02674ZM32.0024 7.72335L31.1649 11.878L32.3182 12.1105L33.1254 12.2732L33.2432 11.6892L34.7488 4.22048C34.9755 4.1251 35.2905 4.00242 35.6846 3.87269C36.353 3.65267 37.2456 3.41341 38.3179 3.25189C38.3184 3.25183 38.3188 3.25177 38.3192 3.2517L37.6532 10.4092L37.6515 10.427H44.3486L44.347 10.4097L43.6851 3.29309C44.8074 3.47556 45.9993 3.7785 47.2418 4.24817L48.5258 11.5937L48.6401 12.2478L49.613 12.0777L50.6103 11.9034L49.8701 7.66896C50.6732 8.08178 51.4383 8.54962 52.1554 9.06881L52.1574 9.07024C56.7461 12.3751 59.2261 17.2969 59.5212 22.2387H58.5299H56.4274H25.5724H23.4699H22.4805C22.5829 20.457 22.9605 18.689 23.6301 16.9938L23.6306 16.9924C25.0906 13.2801 28.0014 9.85629 32.0024 7.72335ZM27.0199 13.8313C27.0199 13.8313 27.0201 13.8309 27.8615 14.3713C28.091 14.5187 28.2579 14.6259 28.3793 14.7038C28.703 14.9116 28.7031 14.9114 28.7031 14.9114L28.7005 14.9155L28.6874 14.9363C28.6753 14.9558 28.6565 14.9861 28.6321 15.0264C28.5833 15.107 28.512 15.2272 28.4263 15.3796C28.2542 15.6854 28.0264 16.1159 27.8038 16.6133C27.4878 17.3195 27.2151 18.0895 27.0926 18.7998H27.3394H38.2586V20.7998H26.1597H25.0928L25.0337 19.8627C25.0061 19.425 25.0381 18.9765 25.1099 18.5334C25.2725 17.5301 25.6389 16.5547 25.9783 15.7963C26.2317 15.2301 26.4891 14.7439 26.6833 14.3988C26.7806 14.2258 26.8628 14.0871 26.9215 13.9901C26.9509 13.9416 26.9745 13.9035 26.9912 13.8766L27.0111 13.845L27.017 13.8357L27.0189 13.8328L27.0199 13.8313Z" fill="black"/>
<path d="M33.1338 81.9312H48.8619L48.3396 80H40.9997H33.6561L33.1338 81.9312Z" fill="black"/>
<path fill-rule="evenodd" clip-rule="evenodd" d="M32.7963 46.8873C33.0806 46.7029 33.4388 46.675 33.7482 46.8131C35.9219 47.7833 38.3814 48.3317 40.9982 48.3317C43.6118 48.3317 46.0783 47.7832 48.2518 46.8131C48.5612 46.675 48.9195 46.7029 49.2037 46.8873C49.4879 47.0717 49.6594 47.3874 49.6594 47.7262V52.7782L68.6977 56.804L68.7326 56.8091L68.7641 56.814C68.8297 56.8244 68.9213 56.84 69.0358 56.8627C69.2646 56.9079 69.586 56.981 69.9755 57.0951C70.7534 57.3228 71.8116 57.7163 72.951 58.3831C75.2444 59.7251 77.8449 62.1648 79.1378 66.5028C79.1468 66.5327 79.1543 66.5631 79.1604 66.5938L81.9809 80.8053C82.0392 81.0989 81.9628 81.4032 81.7729 81.6345C81.5829 81.8659 81.2993 82 81 82H1.00001C0.700757 82 0.417234 81.8659 0.227286 81.6347C0.037338 81.4035 -0.039068 81.0993 0.0190467 80.8058L2.8325 66.5942C2.83865 66.5631 2.84628 66.5324 2.85535 66.502C4.15201 62.1642 6.75524 59.7247 9.05019 58.3829C10.1904 57.7162 11.2492 57.3228 12.0275 57.095C12.4173 56.981 12.7388 56.9079 12.9677 56.8626C13.0823 56.84 13.1739 56.8243 13.2395 56.814C13.2659 56.8098 13.288 56.8065 13.3059 56.804L24.6596 54.4027C24.8011 54.1702 25.0338 54.002 25.3068 53.9442L32.3406 52.4553V47.7262C32.3406 47.3874 32.5121 47.0717 32.7963 46.8873ZM27.6958 55.8048L33.2832 54.6231L38.902 57.6796L34.1753 62.7927L27.6958 55.8048ZM25.4155 56.2871L13.6841 58.7682C13.6568 58.774 13.6292 58.7786 13.6015 58.7821L13.5995 58.7824L13.5945 58.7831L13.5765 58.7857L13.5511 58.7896C13.5096 58.7961 13.4433 58.8074 13.3552 58.8248C13.1788 58.8596 12.9159 58.9189 12.5892 59.0145C11.9345 59.2061 11.0322 59.5408 10.0597 60.1094C8.13682 61.2337 5.91819 63.2817 4.78504 67.03L2.21739 80H33.6561L33.1338 81.9312H48.8619L48.3396 80H79.782L77.2079 67.0299C76.0781 63.2813 73.8619 61.2334 71.9409 60.1092C70.9693 59.5407 70.0677 59.206 69.4135 59.0145C69.0871 58.9189 68.8243 58.8596 68.6481 58.8247C68.56 58.8073 68.4938 58.7961 68.4523 58.7896C68.4315 58.7863 68.417 58.7842 68.409 58.7831L68.4051 58.7825L68.4033 58.7823L68.4022 58.7821C68.3745 58.7787 68.3468 58.774 68.3195 58.7682L48.4526 54.5672C47.9902 54.4695 47.6594 54.0614 47.6594 53.5889V49.2014C45.5957 49.9319 43.3461 50.3317 40.9982 50.3317C38.6476 50.3317 36.4023 49.9319 34.3406 49.2016V52.9216L40.5205 56.2833L40.7828 55.9995L46.5034 61.3228L43.9342 63.7116L43.3929 61.7102L40.8645 63.8833L40.8385 63.859L43.5669 61.3222L40.8894 58.8307L38.371 61.5551L38.5898 61.7596L37.9989 63.9445L36.8374 62.8593L40.562 58.8303L40.5104 58.7823L38.2104 58.7823L35.5519 61.6583L36.8374 62.8593L34.9107 64.9435C34.7216 65.1481 34.4557 65.2645 34.1771 65.2647C33.8986 65.2649 33.6325 65.1489 33.4431 64.9446L25.4155 56.2871ZM39.653 65.4889L37.9989 63.9445L33.6561 80H40.9997H48.3396L43.9342 63.7116L41.509 65.9665L40.808 66.569L40.0394 65.851L39.653 65.4889ZM39.653 65.4889L40.0394 65.851L40.8069 66.57L40.808 66.569L40.8345 66.5938L41.509 65.9665L42.2906 65.2948L46.2491 79.9312H35.7466L39.653 65.4889ZM38.5898 61.7596L40.8377 63.8597L40.8385 63.859L38.5915 61.7536L38.5898 61.7596Z" fill="black"/>
<path d="M43.3929 61.7102L40.8645 63.8833L40.8385 63.859L40.8377 63.8597L38.5898 61.7596L37.9989 63.9445L39.653 65.4889L40.0394 65.851L40.808 66.569L41.509 65.9665L43.9342 63.7116L43.3929 61.7102Z" fill="black"/>
<path d="M36.8374 62.8593L40.562 58.8303L40.5104 58.7823L38.2104 58.7823L35.5519 61.6583L36.8374 62.8593Z" fill="black"/>
<path fill-rule="evenodd" clip-rule="evenodd" d="M60.5229 22.2387C60.2267 16.9839 57.5988 11.7569 52.7418 8.25879C51.4691 7.33739 50.0588 6.57215 48.5605 5.9787L48.1303 3.5237C46.1454 2.70849 44.2698 2.30244 42.5739 2.14315L43.2509 9.42695H38.7486L39.4291 2.11816C36.0233 2.3899 33.8692 3.5237 33.8692 3.5237L33.3721 5.9787C28.2105 8.08076 24.4628 12.1443 22.7 16.6264C21.9828 18.4421 21.5823 20.3346 21.479 22.2387L21.242 22.2387L21.2253 22.2392L21.2586 23.2387C21.2253 22.2392 21.224 22.2393 21.224 22.2393L21.2226 22.2393L21.2196 22.2394L21.2132 22.2397L21.1983 22.2404C21.1874 22.2411 21.1746 22.2419 21.1601 22.243C21.1311 22.2453 21.0949 22.2489 21.0525 22.2544C20.968 22.2655 20.8571 22.2846 20.7282 22.3183C20.4727 22.3849 20.1309 22.5125 19.7871 22.7593C19.0479 23.2898 18.4836 24.2352 18.4923 25.7307L18.4981 26.7249H22.9024V27.0709C20.9015 27.625 19.6235 29.8095 19.6235 32.0531C19.6235 34.4152 21.0364 36.7059 23.2162 37.1077C24.7994 44.6742 32.2351 50.2631 40.9981 50.2631C49.7645 50.2631 57.2004 44.6743 58.7836 37.1077C60.9631 36.706 62.3798 34.4165 62.3798 32.0531C62.3798 29.8083 61.0984 27.6248 59.0974 27.0708V26.7249H63.4962L63.5049 25.7336C63.5179 24.2438 62.9669 23.2977 62.2348 22.7638C61.8941 22.5153 61.5547 22.3865 61.3002 22.3192C61.172 22.2852 61.0615 22.2658 60.9772 22.2547C60.9349 22.249 60.8987 22.2454 60.8697 22.2431C60.8551 22.242 60.8423 22.2411 60.8314 22.2405L60.8163 22.2397L60.8098 22.2395L60.8069 22.2393L60.8055 22.2393C60.8055 22.2393 60.8041 22.2392 60.7703 23.2387L60.7703 22.2387L60.5229 22.2387ZM59.5212 22.2387C59.2261 17.2969 56.7461 12.3751 52.1574 9.07024L52.1554 9.06881C51.4383 8.54962 50.6732 8.08178 49.8701 7.66896L50.6103 11.9034L49.613 12.0777L48.6401 12.2478L48.5258 11.5937L47.2418 4.24817C45.9993 3.7785 44.8074 3.47556 43.6851 3.29309L44.347 10.4097L44.3486 10.427H37.6515L37.6532 10.4092L38.3179 3.25189C37.2456 3.41341 36.353 3.65267 35.6846 3.87269C35.2905 4.00242 34.9755 4.1251 34.7488 4.22048L33.2432 11.6892L33.1254 12.2732L32.3182 12.1105L31.1649 11.878L32.0024 7.72335C28.0014 9.85629 25.0906 13.2801 23.6306 16.9924L23.6301 16.9938C22.9605 18.689 22.5829 20.457 22.4805 22.2387H23.4699H25.5724H56.4274H58.5299H59.5212ZM24.9024 26.7249H57.0974V27.9365C57.0974 28.4887 57.5451 28.9365 58.0974 28.9365C59.1576 28.9365 60.3798 30.1112 60.3798 32.0531C60.3798 33.993 59.1639 35.1641 58.1051 35.1698L58.0918 35.1689L58.0547 35.1661C58.0396 35.1649 58.0195 35.1634 57.9977 35.1622C57.4819 35.1317 57.0278 35.4993 56.9501 36.0101C55.9119 42.8411 49.2516 48.2631 40.9981 48.2631C32.7483 48.2631 26.088 42.8412 25.0497 36.0101C24.9722 35.5007 24.5203 35.1335 24.0057 35.1619L23.9736 35.1639L23.9435 35.1661L23.9055 35.1691L23.8957 35.1698C22.8378 35.1649 21.6235 33.9951 21.6235 32.0531C21.6235 30.1097 22.8434 28.9365 23.9024 28.9365C24.4547 28.9365 24.9024 28.4887 24.9024 27.9365V26.7249ZM25.9783 15.7963C25.6389 16.5547 25.2725 17.5301 25.1099 18.5334C25.0381 18.9765 25.0061 19.425 25.0337 19.8627L25.0928 20.7998H26.1597H38.2586V18.7998H27.3394H27.0926C27.2151 18.0895 27.4878 17.3195 27.8038 16.6133C28.0264 16.1159 28.2542 15.6854 28.4263 15.3796C28.512 15.2272 28.5833 15.107 28.6321 15.0264C28.6565 14.9861 28.6753 14.9558 28.6874 14.9363L28.7005 14.9155L28.7031 14.9114C28.7031 14.9114 28.703 14.9116 28.3793 14.7038L27.8615 14.3713C27.0201 13.8309 27.0199 13.8313 27.0199 13.8313L27.0189 13.8328L27.017 13.8357L27.0111 13.845L26.9912 13.8766C26.9745 13.9035 26.9509 13.9416 26.9215 13.9901C26.8628 14.0871 26.7806 14.2258 26.6833 14.3988C26.4891 14.7439 26.2317 15.2301 25.9783 15.7963ZM24.9146 25.7249H22.9127C22.9253 25.3886 22.9493 25.0552 22.9843 24.7249H24.9992C24.9578 25.0553 24.9295 25.3888 24.9146 25.7249Z" fill="black"/>
<path d="M22.9127 25.7249H24.9146C24.9295 25.3888 24.9578 25.0553 24.9992 24.7249H22.9843C22.9493 25.0552 22.9253 25.3886 22.9127 25.7249Z" fill="black"/>
</svg>
