<svg width="82" height="82" viewBox="0 0 82 82" fill="none" xmlns="http://www.w3.org/2000/svg">
<path d="M58.0974 27.9364V26.2779C58.0974 17.9134 50.4433 11.1324 40.9981 11.1324C31.5565 11.1324 23.9024 17.9134 23.9024 26.2779V27.9364C22.0902 27.9364 20.6235 29.7824 20.6235 32.0531C20.6235 34.3269 22.0902 36.1697 23.9024 36.1697C23.9553 36.1697 24.0046 36.1635 24.061 36.1604C25.1857 43.5597 32.3392 49.2631 40.9981 49.2631C49.6606 49.2631 56.8141 43.5597 57.9388 36.1604C57.9917 36.1635 58.0481 36.1697 58.0974 36.1697C59.9096 36.1697 61.3798 34.3269 61.3798 32.0531C61.3798 29.7824 59.9096 27.9364 58.0974 27.9364Z" fill="white"/>
<path d="M58.0974 27.9364V26.2779C58.0974 17.9134 50.4433 11.1324 40.9981 11.1324C31.5565 11.1324 23.9024 17.9134 23.9024 26.2779V27.9364C22.0902 27.9364 20.6235 29.7824 20.6235 32.0531C20.6235 34.3269 22.0902 36.1697 23.9024 36.1697C23.9553 36.1697 24.0046 36.1635 24.061 36.1604C25.1857 43.5597 32.3392 49.2631 40.9981 49.2631C49.6606 49.2631 56.8141 43.5597 57.9388 36.1604C57.9917 36.1635 58.0481 36.1697 58.0974 36.1697C59.9096 36.1697 61.3798 34.3269 61.3798 32.0531C61.3798 29.7824 59.9096 27.9364 58.0974 27.9364Z" stroke="#89BC94" stroke-width="2" stroke-miterlimit="10" stroke-linecap="round" stroke-linejoin="round"/>
<path d="M78.1795 66.7884C75.7609 58.6738 68.5263 57.7898 68.5263 57.7898L48.6594 53.5888V47.7262C46.3572 48.7538 43.7518 49.3316 40.9982 49.3316C38.2412 49.3316 35.6428 48.7538 33.3406 47.7262V53.5888L13.4772 57.7898C13.4772 57.7898 6.23908 58.6738 3.81345 66.7884L1 80.9999H81L78.1795 66.7884Z" fill="white"/>
<path d="M78.1795 66.7884C75.7609 58.6738 68.5263 57.7898 68.5263 57.7898L48.6594 53.5888V47.7262C46.3572 48.7538 43.7518 49.3316 40.9982 49.3316C38.2412 49.3316 35.6428 48.7538 33.3406 47.7262V53.5888L13.4772 57.7898C13.4772 57.7898 6.23908 58.6738 3.81345 66.7884L1 80.9999H81L78.1795 66.7884Z" stroke="#89BC94" stroke-width="2" stroke-miterlimit="10" stroke-linecap="round" stroke-linejoin="round"/>
<path d="M33.0094 53.3358L25.5139 54.9225L34.1764 64.2646L40.5084 57.415L33.0094 53.3358Z" fill="white"/>
<path d="M33.0094 53.3358L25.5139 54.9225L34.1764 64.2646L40.5084 57.415L33.0094 53.3358Z" stroke="#89BC94" stroke-width="2" stroke-miterlimit="10" stroke-linecap="round" stroke-linejoin="round"/>
<path d="M49.0335 53.3951L56.4867 54.9725L47.8736 64.2646L40.5085 57.415L49.0335 53.3951Z" fill="white"/>
<path d="M49.0335 53.3951L56.4867 54.9725L47.8736 64.2646L40.5085 57.415L49.0335 53.3951Z" stroke="#89BC94" stroke-width="2" stroke-miterlimit="10" stroke-linecap="round" stroke-linejoin="round"/>
<path d="M40.8361 57.415L36.9614 61.6067L40.8361 65.2267L45.0351 61.3224L40.8361 57.415Z" fill="#DAFFE0"/>
<path d="M40.8361 57.415L36.9614 61.6067L40.8361 65.2267L45.0351 61.3224L40.8361 57.415Z" stroke="#89BC94" stroke-width="2" stroke-miterlimit="10"/>
<path d="M42.8418 63.5026L40.8357 65.2267L39.1222 63.6213L34.4402 80.9312H47.5555L42.8418 63.5026Z" fill="#DAFFE0"/>
<path d="M42.8418 63.5026L40.8357 65.2267L39.1222 63.6213L34.4402 80.9312H47.5555L42.8418 63.5026Z" stroke="#89BC94" stroke-width="2" stroke-miterlimit="10"/>
<path d="M43.2509 9.42697L42.4647 1H39.5314L38.7487 9.42697H43.2509Z" fill="#DAFFE0"/>
<path d="M43.2509 9.42697L42.4647 1H39.5314L38.7487 9.42697H43.2509Z" stroke="#89BC94" stroke-width="2" stroke-miterlimit="10"/>
<path d="M60.5511 23.2387C60.5511 17.654 57.9069 11.9788 52.7418 8.2588C51.4691 7.33739 50.0588 6.57215 48.5604 5.9787L48.1303 3.5237C46.1454 2.70849 44.2698 2.30245 42.5739 2.14315L43.2509 9.42695H38.7486L39.4291 2.11816C36.0233 2.3899 33.8692 3.5237 33.8692 3.5237L33.372 5.9787C28.2105 8.08076 24.4628 12.1443 22.7 16.6264C21.8574 18.7597 21.4519 20.9992 21.4519 23.2387H60.5511Z" fill="white"/>
<path d="M48.1303 3.5237L48.5604 5.97871C50.0588 6.57215 51.4691 7.33739 52.7418 8.2588C57.9069 11.9788 60.5511 17.654 60.5511 23.2387H21.4519C21.4519 20.9992 21.8574 18.7597 22.7 16.6264C24.4628 12.1443 28.2105 8.08076 33.372 5.97871L33.8692 3.5237M48.1303 3.5237C46.1454 2.70849 44.2698 2.30245 42.5739 2.14315L43.2509 9.42695H38.7486L39.4291 2.11816C36.0233 2.3899 33.8692 3.5237 33.8692 3.5237M48.1303 3.5237L49.6252 12.0756M33.8692 3.5237L32.1451 12.0756M27.8615 14.3713C27.8615 14.3713 25.8836 17.451 26.0317 19.7998H38.2586" stroke="#89BC94" stroke-width="2" stroke-miterlimit="10"/>
<path d="M60.7703 23.2386H21.2586C21.2586 23.2386 19.4782 23.298 19.4923 25.7249H62.5049C62.5261 23.298 60.7703 23.2386 60.7703 23.2386Z" fill="white"/>
<path d="M60.7703 23.2386H21.2586C21.2586 23.2386 19.4782 23.298 19.4923 25.7249H62.5049C62.5261 23.298 60.7703 23.2386 60.7703 23.2386V23.2386Z" stroke="#89BC94" stroke-width="2" stroke-miterlimit="10"/>
</svg>
