<svg width="104" height="84" viewBox="0 0 104 84" fill="none" xmlns="http://www.w3.org/2000/svg">
<path d="M61.536 68.1317H34.7529L61.536 38.3722V68.1317ZM3 83H75.0033V3L3 83Z" fill="white"/>
<path d="M61.536 68.1317H34.7529L61.536 38.3722V68.1317V68.1317ZM3 83H75.0033V3L3 83Z" stroke="#89BC94" stroke-width="2" stroke-miterlimit="10"/>
<path d="M11.8208 78.844V83.0001" stroke="#89BC94" stroke-width="2" stroke-miterlimit="10"/>
<path d="M16.3569 78.844V83.0001" stroke="#89BC94" stroke-width="2" stroke-miterlimit="10"/>
<path d="M20.8931 78.844V83.0001" stroke="#89BC94" stroke-width="2" stroke-miterlimit="10"/>
<path d="M25.4268 78.844V83.0001" stroke="#89BC94" stroke-width="2" stroke-miterlimit="10"/>
<path d="M29.9653 78.844V83.0001" stroke="#89BC94" stroke-width="2" stroke-miterlimit="10"/>
<path d="M34.4988 78.844V83.0001" stroke="#89BC94" stroke-width="2" stroke-miterlimit="10"/>
<path d="M39.0349 78.844V83.0001" stroke="#89BC94" stroke-width="2" stroke-miterlimit="10"/>
<path d="M43.5737 78.844V83.0001" stroke="#89BC94" stroke-width="2" stroke-miterlimit="10"/>
<path d="M48.1072 78.844V83.0001" stroke="#89BC94" stroke-width="2" stroke-miterlimit="10"/>
<path d="M52.646 78.844V83.0001" stroke="#89BC94" stroke-width="2" stroke-miterlimit="10"/>
<path d="M57.1821 78.844V83.0001" stroke="#89BC94" stroke-width="2" stroke-miterlimit="10"/>
<path d="M61.7183 78.844V83.0001" stroke="#89BC94" stroke-width="2" stroke-miterlimit="10"/>
<path d="M66.2517 78.844V83.0001" stroke="#89BC94" stroke-width="2" stroke-miterlimit="10"/>
<path d="M70.7905 78.844V83.0001" stroke="#89BC94" stroke-width="2" stroke-miterlimit="10"/>
<path d="M103 67.1624C103 68.6903 101.881 69.9303 100.506 69.9303H71.732C70.3568 69.9303 69.2407 68.6903 69.2407 67.1624V19.3962C69.2407 17.8655 70.3568 16.6255 71.732 16.6255H100.506C101.881 16.6255 103 17.8655 103 19.3962V67.1624Z" fill="white"/>
<path d="M103 67.1624C103 68.6903 101.881 69.9303 100.506 69.9303H71.732C70.3568 69.9303 69.2407 68.6903 69.2407 67.1624V19.3962C69.2407 17.8655 70.3568 16.6255 71.732 16.6255H100.506C101.881 16.6255 103 17.8655 103 19.3962V67.1624V67.1624Z" stroke="#89BC94" stroke-width="2" stroke-miterlimit="10"/>
<path d="M73.061 23.0391H99.1745V29.487H73.061V23.0391Z" fill="white"/>
<path d="M73.061 23.0391H99.1745V29.487H73.061V23.0391Z" stroke="#89BC94" stroke-width="2" stroke-miterlimit="10"/>
<path d="M75.4678 35.0457H80.4119V40.5358H75.4678V35.0457Z" fill="white"/>
<path d="M75.4678 35.0457H80.4119V40.5358H75.4678V35.0457Z" stroke="#89BC94" stroke-width="2" stroke-miterlimit="10"/>
<path d="M83.647 35.0457H88.591V40.5358H83.647V35.0457Z" fill="white"/>
<path d="M83.647 35.0457H88.591V40.5358H83.647V35.0457Z" stroke="#89BC94" stroke-width="2" stroke-miterlimit="10"/>
<path d="M91.8314 35.0457H96.7703V40.5358H91.8314V35.0457Z" fill="white"/>
<path d="M91.8314 35.0457H96.7703V40.5358H91.8314V35.0457Z" stroke="#89BC94" stroke-width="2" stroke-miterlimit="10"/>
<path d="M75.4678 44.2756H80.4119V49.7629H75.4678V44.2756Z" fill="white"/>
<path d="M75.4678 44.2756H80.4119V49.7629H75.4678V44.2756Z" stroke="#89BC94" stroke-width="2" stroke-miterlimit="10"/>
<path d="M83.647 44.2756H88.591V49.7629H83.647V44.2756Z" fill="white"/>
<path d="M83.647 44.2756H88.591V49.7629H83.647V44.2756Z" stroke="#89BC94" stroke-width="2" stroke-miterlimit="10"/>
<path d="M91.8314 44.2756H96.7703V49.7629H91.8314V44.2756Z" fill="white"/>
<path d="M91.8314 44.2756H96.7703V49.7629H91.8314V44.2756Z" stroke="#89BC94" stroke-width="2" stroke-miterlimit="10"/>
<path d="M75.4678 53.5056H80.4119V58.9957H75.4678V53.5056Z" fill="white"/>
<path d="M75.4678 53.5056H80.4119V58.9957H75.4678V53.5056Z" stroke="#89BC94" stroke-width="2" stroke-miterlimit="10"/>
<path d="M83.647 53.5056H88.591V58.9957H83.647V53.5056Z" fill="white"/>
<path d="M83.647 53.5056H88.591V58.9957H83.647V53.5056Z" stroke="#89BC94" stroke-width="2" stroke-miterlimit="10"/>
<path d="M91.8314 53.5056H96.7703V58.9957H91.8314V53.5056Z" fill="white"/>
<path d="M99.8443 57.9781V63.8644C99.8443 65.3923 98.7256 66.6351 97.3504 66.6351H89.1044M91.8317 53.5056H96.7706V58.9957H91.8317V53.5056Z" stroke="#89BC94" stroke-width="2" stroke-miterlimit="10"/>
<path d="M11.6154 60.5494L6.98438 55.407L41.9623 16.543L46.5908 21.691L11.6154 60.5494Z" fill="white"/>
<path d="M44.2792 19.1168L9.30384 57.978M11.6155 60.5492L6.98446 55.4068L41.9624 16.5428L46.5909 21.6908L11.6155 60.5492ZM46.5909 21.6908L41.9624 16.5428L44.4178 13.8148L49.0514 18.96L46.5909 21.6908ZM49.0514 18.96L50.383 17.4806C51.6607 16.0582 51.6607 13.755 50.383 12.3326C49.1027 10.9158 47.0296 10.9158 45.7519 12.3326L44.4178 13.8148L49.0514 18.96ZM6.98446 55.4068L11.6155 60.5492L3.75684 64.1351L6.98446 55.4068ZM5.35012 59.828L3.75684 64.1351L7.63615 62.365L5.35012 59.828Z" stroke="#89BC94" stroke-width="2" stroke-miterlimit="10" stroke-linecap="round" stroke-linejoin="round"/>
</svg>
