<svg width="80" height="82" viewBox="0 0 80 82" fill="none" xmlns="http://www.w3.org/2000/svg">
<path d="M52.1905 81.9999H35.3276C35.86 81.5089 36.3851 81.0048 36.8999 80.4898H50.5893C53.6848 80.4898 56.1941 77.5142 56.1941 73.844V59.4234L56.5056 59.0056L56.5093 59.0005L57.7952 57.2757V75.3542C57.7952 79.0244 55.2859 81.9999 52.1905 81.9999ZM56.1941 49.6298V12.6737C56.1941 12.6737 56.0957 6.36124 57.543 3.51025H61.9278L61.965 3.56307C64.0875 6.5827 64.0875 10.9694 61.965 13.9894L61.9278 14.0422H57.7943C57.7946 14.1332 57.7952 14.1839 57.7952 14.1839V46.4622L56.1941 49.6298Z" fill="#00A85A"/>
<path fill-rule="evenodd" clip-rule="evenodd" d="M3.23012 82H3.23135H3.23473H3.24088H3.24917H3.25962H3.27283H3.28819H3.3057H3.32567H3.34779H3.37236H3.39878H3.42797H3.459H3.49248H3.52781H3.5656H3.60553H3.64762H3.69186H3.73825H3.78648H3.83717H3.8897H3.94438H4.00122H4.0599H4.12072H4.1837H4.24852H4.31519H4.384H4.45497H4.52747H4.60212H4.67892H4.75726H4.83775H4.91977H5.00395H5.08997H5.17783H5.26753H5.35877H5.45217H5.54709H5.64386H5.74248H5.84263H5.94462H6.04846H6.15383H6.26074H6.3698H6.48009H6.59222H6.70588H6.82109H6.93813H7.05672H7.17683H7.29849H7.42168H7.54641H35.3276C35.86 81.509 36.385 81.0049 36.8999 80.4899H5.94524V71.4681H3.23012L3.19295 71.5206C1.07045 74.5406 1.07045 78.9272 3.19295 81.9472L3.23012 82Z" fill="url(#paint0_radial_9307_237)"/>
<path d="M11.4308 12.5319H60.3265L60.3634 12.4791C62.4859 9.4591 62.4859 5.07244 60.3634 2.05282L60.3265 2H11.4308L11.6729 2.30852C13.9416 5.20357 13.8534 9.71407 11.4741 12.4816L11.4308 12.5319Z" fill="#F2F2F2"/>
<path d="M50.5891 80.4898H5.94531V8.24628C5.94531 4.87478 8.25029 2.14181 11.0935 2.14181H54.7699C54.7699 2.14181 59.3024 1.82273 59.2109 2.14181C56.031 2.21539 56.1938 12.6737 56.1938 12.6737V73.8441C56.1938 77.5143 53.6845 80.4898 50.5891 80.4898Z" fill="white" stroke="#89BC94" stroke-width="2.36222" stroke-miterlimit="22.9256"/>
<path d="M50.524 80.4898C48.533 80.4898 1.62874 80.4898 1.62874 80.4898L1.59188 80.437C-0.530625 77.4169 -0.530625 73.0302 1.59188 70.0101L1.62874 69.9576H50.524L50.2822 70.2662C48.0135 73.1609 47.6283 78.1003 50.524 80.4898C50.524 80.4898 52.5153 80.4898 50.524 80.4898Z" fill="#F2F2F2"/>
<path d="M16.8071 13.8247H47.1824V16.8553H16.8071V13.8247Z" fill="#839BA5"/>
<path d="M37.8281 65.3226H51.4093V66.3104H37.8281V65.3226Z" fill="#004686"/>
<path d="M12.5803 22.5493H51.4091V23.7804H12.5803V22.5493Z" fill="#E6E6E6"/>
<path d="M12.5803 28.5931H51.4091V29.8243H12.5803V28.5931Z" fill="#E6E6E6"/>
<path d="M12.5803 34.6368H51.4091V35.8681H12.5803V34.6368Z" fill="#E6E6E6"/>
<path d="M12.5803 40.6809H51.4091V41.9122H12.5803V40.6809Z" fill="#E6E6E6"/>
<path d="M12.5803 46.7246H51.4091V47.9556H12.5803V46.7246Z" fill="#E6E6E6"/>
<path d="M12.5803 58.812H51.4091V60.0435H12.5803V58.812Z" fill="#E6E6E6"/>
<path d="M12.5803 52.7686H51.4091V53.9991H12.5803V52.7686Z" fill="#E6E6E6"/>
<path d="M57.7954 57.2758V55.0918L57.9883 54.827L70.9273 29.2348L71.1835 29.4169C71.2077 29.434 71.2345 29.4424 71.2609 29.4424C71.3122 29.4424 71.3623 29.4114 71.3902 29.3553L78.3939 15.5029C78.4366 15.4181 78.4133 15.3081 78.342 15.2574L75.802 13.4522C75.8281 13.4293 75.8601 13.4169 75.892 13.4169C75.9191 13.4169 75.9464 13.4256 75.971 13.4435L79.8065 16.2383C79.8777 16.2904 79.8998 16.4004 79.8562 16.4846L79.1598 17.8283L79.3751 17.9853L79.4949 18.0727L79.9422 18.3983C79.9994 18.4399 80.0172 18.5287 79.9822 18.5965L75.6066 27.0376C75.5839 27.0817 75.5443 27.1061 75.5034 27.1061C75.4816 27.1061 75.4598 27.0992 75.4398 27.085L74.9766 26.7473C74.9191 26.7054 74.9013 26.6169 74.9363 26.5492L78.8858 18.9298C78.9208 18.862 78.903 18.7735 78.8458 18.7316L78.7337 18.65L72.7244 30.2445C72.6959 30.2995 72.6461 30.3297 72.5954 30.3297C72.5684 30.3297 72.5413 30.3213 72.5164 30.3031L72.2621 30.1177L59.1523 55.4105L59.3517 55.5555C59.45 55.6272 59.4807 55.7795 59.4202 55.896L59.4181 55.9C59.3788 55.9762 59.3102 56.0181 59.2402 56.0181C59.2027 56.0181 59.1652 56.0064 59.1311 55.9816L58.8909 55.8064L58.7775 55.9587L59.0427 56.1517C59.141 56.2231 59.1717 56.3758 59.1112 56.4919L59.109 56.4963C59.0697 56.5724 59.0012 56.6143 58.9312 56.6143C58.894 56.6143 58.8562 56.6023 58.8221 56.5775L58.4943 56.3386L57.7954 57.2758Z" fill="#72868F"/>
<path d="M56.1938 59.4235V57.2918L57.7952 55.0916V57.2757L56.5091 59.0006L56.5054 59.0057L56.1938 59.4235Z" fill="#5F7077"/>
<path d="M51.884 65.1408L51.5132 64.8706L52.1854 61.4845L52.9249 60.933L54.2333 57.469L55.4404 58.3272L56.194 57.2916V59.4232L54.3138 61.9449L54.1912 62.8974L51.884 65.1408Z" fill="#B8B8B8"/>
<path d="M55.4403 58.3273L53.1885 56.7268L54.7245 52.5361L69.3446 23.6184L72.5976 25.9303L57.988 54.8268L55.4403 58.3273Z" fill="#46A55C"/>
<path d="M71.1835 29.4169L67.3219 26.6722C67.2503 26.6212 67.2273 26.5112 67.27 26.4264L74.2734 12.5743C74.3164 12.4894 74.4089 12.4618 74.4805 12.5128L78.3421 15.2574C78.4134 15.308 78.4367 15.418 78.394 15.5029L71.3903 29.3553C71.3476 29.4402 71.2548 29.4675 71.1835 29.4169Z" fill="#00A85A"/>
<path d="M78.0475 17.0957L77.927 17.0098L73.3312 13.7432C73.2734 13.7024 73.1988 13.7246 73.1644 13.7927L72.871 14.373C72.8366 14.4415 72.8553 14.5296 72.9128 14.5708L77.4045 17.763C77.4619 17.8038 77.4807 17.8924 77.4462 17.9605L73.568 25.6312C73.5336 25.6993 73.5524 25.7878 73.6098 25.8286L74.0765 26.1604C74.1339 26.2012 74.2083 26.179 74.243 26.1109L78.5393 17.613C78.5737 17.5449 78.555 17.4564 78.4975 17.4156L78.0475 17.0957Z" fill="#1A1A1A"/>
<path d="M53.2761 61.295L51.8779 60.3017L54.7249 52.5355L57.9778 54.8474L53.2761 61.295Z" fill="#5D7A7F"/>
<path d="M53.2761 61.2949L51.8782 60.3016L51.1444 60.8629L50.5039 64.2574L50.8768 64.5226L53.1625 62.2493L53.2761 61.2949Z" fill="#DAE7E8"/>
<path d="M58.0376 55.2686L54.3101 52.6193C54.2112 52.5493 54.1789 52.3971 54.2382 52.2802L54.2404 52.2758C54.2996 52.1585 54.4278 52.1207 54.5267 52.191L58.2542 54.8399C58.3531 54.9102 58.3851 55.0621 58.3261 55.1794L58.3239 55.1837C58.2646 55.3007 58.1362 55.3389 58.0376 55.2686Z" fill="#688689"/>
<path d="M57.7342 55.8685L54.0067 53.2195C53.9078 53.1492 53.8759 52.9974 53.9348 52.8801L53.937 52.8757C53.9963 52.7588 54.1247 52.7206 54.2233 52.7908L57.9511 55.4398C58.0497 55.5101 58.0819 55.662 58.0226 55.7793L58.0205 55.7836C57.9612 55.9009 57.8331 55.9388 57.7342 55.8685Z" fill="#688689"/>
<path d="M52.0256 62.5138C51.9387 62.6853 51.751 62.7414 51.606 62.6384C51.461 62.5353 51.414 62.3124 51.5009 62.1408C51.5878 61.9689 51.7755 61.9131 51.9205 62.0162C52.0655 62.1193 52.1125 62.3419 52.0256 62.5138Z" fill="#46A55C"/>
<path d="M50.7758 64.4508L50.6492 64.3608L51.6244 62.4315L51.7513 62.5215L50.7758 64.4508Z" fill="#46A55C"/>
<path d="M69.1287 32.7922L70.9274 29.2346L69.1287 32.7922Z" fill="#526167"/>
<path d="M69.1286 32.7922L67.6743 26.9227L70.9272 29.2346L69.1286 32.7922Z" fill="#0F2D35"/>
<path d="M69.5133 28.23L67.6743 26.9227L69.5133 28.23Z" fill="#0C2630"/>
<path d="M16.8071 13.8247H21.0937V16.8553H16.8071V13.8247Z" fill="#8EA2AA"/>
<defs>
<radialGradient id="paint0_radial_9307_237" cx="0" cy="0" r="1" gradientUnits="userSpaceOnUse" gradientTransform="translate(4.7865 34.5921) scale(50.5872 59.9804)">
<stop stop-color="#8EA2AA"/>
<stop offset="1" stop-color="#839BA5"/>
</radialGradient>
</defs>
</svg>
