<svg width="82" height="82" viewBox="0 0 82 82" fill="none" xmlns="http://www.w3.org/2000/svg">
<path d="M58.0974 27.9365V26.2779C58.0974 17.9134 50.4433 11.1325 40.9981 11.1325C31.5565 11.1325 23.9024 17.9134 23.9024 26.2779V27.9365C22.0902 27.9365 20.6235 29.7824 20.6235 32.0531C20.6235 34.327 22.0902 36.1698 23.9024 36.1698C23.9553 36.1698 24.0046 36.1635 24.061 36.1604C25.1857 43.5598 32.3392 49.2631 40.9981 49.2631C49.6606 49.2631 56.8141 43.5598 57.9388 36.1604C57.9917 36.1635 58.0481 36.1698 58.0974 36.1698C59.9096 36.1698 61.3798 34.327 61.3798 32.0531C61.3798 29.7824 59.9096 27.9365 58.0974 27.9365Z" fill="white"/>
<path fill-rule="evenodd" clip-rule="evenodd" d="M22.9024 26.2779C22.9024 17.2507 31.1215 10.1325 40.9981 10.1325C50.8781 10.1325 59.0974 17.2506 59.0974 26.2779V27.0708C61.0984 27.6248 62.3798 29.8083 62.3798 32.0531C62.3798 34.4165 60.9631 36.706 58.7836 37.1077C57.2004 44.6743 49.7645 50.2631 40.9981 50.2631C32.2351 50.2631 24.7994 44.6742 23.2162 37.1077C21.0364 36.7059 19.6235 34.4152 19.6235 32.0531C19.6235 29.8095 20.9015 27.625 22.9024 27.0709V26.2779ZM40.9981 12.1325C31.9915 12.1325 24.9024 18.5761 24.9024 26.2779V27.9365C24.9024 28.4887 24.4547 28.9365 23.9024 28.9365C22.8434 28.9365 21.6235 30.1097 21.6235 32.0531C21.6235 33.9951 22.8378 35.1649 23.8957 35.1698C23.8978 35.1696 23.901 35.1694 23.9055 35.1691L23.9435 35.1661C23.9601 35.1648 23.9816 35.1633 24.0057 35.1619C24.5203 35.1335 24.9722 35.5007 25.0497 36.0101C26.088 42.8412 32.7483 48.2631 40.9981 48.2631C49.2516 48.2631 55.9119 42.8411 56.9501 36.0101C57.0278 35.4993 57.4819 35.1317 57.9977 35.1622C58.0195 35.1634 58.0396 35.1649 58.0547 35.1661L58.0918 35.1689L58.1051 35.1698C59.1639 35.1641 60.3798 33.993 60.3798 32.0531C60.3798 30.1112 59.1576 28.9365 58.0974 28.9365C57.5451 28.9365 57.0974 28.4887 57.0974 27.9365V26.2779C57.0974 18.5763 50.0084 12.1325 40.9981 12.1325Z" fill="#89BC94"/>
<path d="M78.1795 66.7884C75.7609 58.6738 68.5263 57.7899 68.5263 57.7899L48.6594 53.5889V47.7262C46.3572 48.7538 43.7518 49.3317 40.9982 49.3317C38.2412 49.3317 35.6428 48.7538 33.3406 47.7262V53.5889L13.4772 57.7899C13.4772 57.7899 6.23909 58.6738 3.81346 66.7884L1.00001 81H81L78.1795 66.7884Z" fill="white"/>
<path fill-rule="evenodd" clip-rule="evenodd" d="M32.7963 46.8873C33.0806 46.7029 33.4388 46.675 33.7482 46.8131C35.9219 47.7833 38.3814 48.3317 40.9982 48.3317C43.6118 48.3317 46.0783 47.7832 48.2518 46.8131C48.5612 46.675 48.9195 46.7029 49.2037 46.8873C49.4879 47.0717 49.6594 47.3874 49.6594 47.7262V52.7782L68.6977 56.804C68.7079 56.8055 68.7196 56.8072 68.7326 56.8091C68.7423 56.8106 68.7528 56.8122 68.7641 56.814C68.8297 56.8244 68.9213 56.84 69.0358 56.8627C69.2646 56.9079 69.586 56.981 69.9755 57.0951C70.7534 57.3228 71.8116 57.7163 72.951 58.3831C75.2444 59.7251 77.8449 62.1648 79.1378 66.5028C79.1468 66.5327 79.1543 66.5631 79.1604 66.5938L81.9809 80.8053C82.0392 81.0989 81.9628 81.4032 81.7729 81.6345C81.5829 81.8659 81.2993 82 81 82H1.00001C0.700757 82 0.417234 81.8659 0.227286 81.6347C0.037338 81.4035 -0.039068 81.0993 0.0190467 80.8058L2.8325 66.5942C2.83865 66.5631 2.84628 66.5324 2.85535 66.502C4.15201 62.1642 6.75524 59.7247 9.05019 58.3829C10.1904 57.7162 11.2492 57.3228 12.0275 57.095C12.4173 56.981 12.7388 56.9079 12.9677 56.8626C13.0823 56.84 13.1739 56.8243 13.2395 56.814C13.2659 56.8098 13.288 56.8065 13.3059 56.804L32.3406 52.7783V47.7262C32.3406 47.3874 32.5121 47.0717 32.7963 46.8873ZM68.4033 58.7823C68.4031 58.7822 68.4036 58.7823 68.4033 58.7823C68.403 58.7822 68.4026 58.7822 68.4022 58.7821C68.3745 58.7787 68.3468 58.774 68.3195 58.7682L48.4526 54.5672C47.9902 54.4695 47.6594 54.0614 47.6594 53.5889V49.2014C45.5957 49.9319 43.3461 50.3317 40.9982 50.3317C38.6476 50.3317 36.4023 49.9319 34.3406 49.2016V53.5889C34.3406 54.0614 34.0098 54.4695 33.5475 54.5672L13.6841 58.7682C13.6568 58.774 13.6292 58.7786 13.6015 58.7821C13.6008 58.7822 13.6001 58.7823 13.5995 58.7824C13.5994 58.7824 13.5995 58.7824 13.5995 58.7824M13.5995 58.7824C13.6001 58.7823 13.6008 58.7822 13.6015 58.7821L13.5945 58.7831C13.5865 58.7842 13.5719 58.7863 13.5511 58.7896C13.5096 58.7961 13.4433 58.8074 13.3552 58.8248C13.1788 58.8596 12.9159 58.9189 12.5892 59.0145C11.9345 59.2061 11.0322 59.5408 10.0597 60.1094C8.13682 61.2337 5.91819 63.2817 4.78504 67.03L2.21739 80H79.782L77.2079 67.0299C76.0781 63.2813 73.8619 61.2334 71.9409 60.1092C70.9693 59.5407 70.0677 59.206 69.4135 59.0145C69.0871 58.9189 68.8243 58.8596 68.6481 58.8247C68.56 58.8073 68.4938 58.7961 68.4523 58.7896C68.4315 58.7863 68.417 58.7842 68.409 58.7831L68.4051 58.7825C68.4047 58.7825 68.4036 58.7823 68.4033 58.7823" fill="#89BC94"/>
<path d="M33.0094 53.3359L25.5139 54.9226L34.1764 64.2647L40.5084 57.415L33.0094 53.3359Z" fill="white"/>
<path fill-rule="evenodd" clip-rule="evenodd" d="M32.8023 52.3575C33.0352 52.3082 33.2781 52.3436 33.4872 52.4574L40.9863 56.5366C41.2572 56.684 41.445 56.9482 41.4951 57.2525C41.5452 57.5569 41.4521 57.8674 41.2427 58.0939L34.9107 64.9435C34.7216 65.1481 34.4557 65.2645 34.1771 65.2647C33.8986 65.2649 33.6325 65.1489 33.4431 64.9446L24.7806 55.6025C24.5359 55.3385 24.4519 54.9633 24.5608 54.6201C24.6696 54.2769 24.9546 54.0188 25.3068 53.9442L32.8023 52.3575ZM27.4462 55.5357L34.1753 62.7927L38.902 57.6796L32.8556 54.3906L27.4462 55.5357Z" fill="#89BC94"/>
<path d="M49.0335 53.3952L56.4867 54.9725L47.8736 64.2646L40.5084 57.415L49.0335 53.3952Z" fill="white"/>
<path fill-rule="evenodd" clip-rule="evenodd" d="M48.607 52.4907C48.8045 52.3976 49.027 52.3716 49.2406 52.4168L56.6937 53.9941C57.0459 54.0687 57.3309 54.3268 57.4398 54.6699C57.5487 55.0131 57.4648 55.3883 57.2201 55.6523L48.607 64.9444C48.4265 65.1392 48.176 65.2541 47.9106 65.264C47.6453 65.2738 47.387 65.1777 47.1926 64.9969L39.8275 58.1473C39.5845 57.9212 39.4694 57.5893 39.5204 57.2613C39.5714 56.9334 39.7818 56.6521 40.0821 56.5105L48.607 52.4907ZM49.1557 54.4432L42.2717 57.6892L47.8211 62.8502L54.5547 55.5858L49.1557 54.4432Z" fill="#89BC94"/>
<path d="M40.8361 57.4151L36.9614 61.6067L40.8361 65.2267L45.0351 61.3225L40.8361 57.4151Z" fill="#DAFFE0"/>
<path fill-rule="evenodd" clip-rule="evenodd" d="M40.7828 55.9995L46.5034 61.3228L40.8345 66.5938L35.5519 61.6583L40.7828 55.9995ZM40.8894 58.8307L38.371 61.5551L40.8377 63.8597L43.5669 61.3222L40.8894 58.8307Z" fill="#89BC94"/>
<path d="M42.8418 63.5025L40.8361 65.2267L39.1222 63.6212L34.4402 80.9312H47.5555L42.8418 63.5025Z" fill="#DAFFE0"/>
<path fill-rule="evenodd" clip-rule="evenodd" d="M43.3929 61.7102L48.8619 81.9312H33.1338L38.5915 61.7536L40.8645 63.8833L43.3929 61.7102ZM42.2906 65.2948L40.8069 66.57L39.653 65.4889L35.7466 79.9312H46.2491L42.2906 65.2948Z" fill="#89BC94"/>
<path d="M43.2509 9.42697L42.4647 1H39.5314L38.7487 9.42697H43.2509Z" fill="#DAFFE0"/>
<path fill-rule="evenodd" clip-rule="evenodd" d="M38.62 0H43.3758L44.3486 10.427H37.6515L38.62 0ZM40.4428 2L39.8459 8.42697H42.1533L41.5537 2H40.4428Z" fill="#89BC94"/>
<path d="M60.5511 23.2387C60.5511 17.654 57.9069 11.9788 52.7418 8.25879C51.4691 7.33739 50.0588 6.57215 48.5605 5.9787L48.1303 3.5237C46.1454 2.70849 44.2698 2.30244 42.5739 2.14315L43.2509 9.42697H38.7487L39.4291 2.11816C36.0233 2.3899 33.8692 3.5237 33.8692 3.5237L33.3721 5.9787C28.2105 8.08076 24.4628 12.1443 22.7 16.6264C21.8574 18.7597 21.4519 20.9992 21.4519 23.2387H60.5511Z" fill="white"/>
<path fill-rule="evenodd" clip-rule="evenodd" d="M40.535 1.02674L39.8459 8.42697H42.1533L41.4666 1.03473L42.6675 1.14753C44.4538 1.31533 46.4268 1.74301 48.5102 2.59867L49.0202 2.80811L49.4504 5.26367C50.8289 5.8526 52.1335 6.58398 53.3273 7.44806C58.7584 11.3602 61.5511 17.34 61.5511 23.2387V24.2387H20.4519V23.2387C20.4519 20.8783 20.8793 18.514 21.7697 16.2596C23.5731 11.6749 27.3332 7.52411 32.4967 5.26304L32.9833 2.85991L33.4034 2.63878L33.8692 3.5237C33.4034 2.63878 33.4032 2.63892 33.4034 2.63878L33.4057 2.63757L33.4088 2.63595L33.4174 2.63149L33.4441 2.61789C33.4661 2.60681 33.4965 2.59178 33.5349 2.57328C33.6118 2.5363 33.7212 2.48544 33.8615 2.4247C34.1418 2.30325 34.5458 2.14199 35.0593 1.97297C36.0854 1.63519 37.5541 1.26458 39.3495 1.12133L40.535 1.02674ZM32.0024 7.72335L31.1649 11.878L33.1254 12.2732L34.7488 4.22048C34.9755 4.1251 35.2905 4.00242 35.6846 3.87269C36.3533 3.65259 37.2463 3.41322 38.3192 3.2517L37.6515 10.427H44.3486L43.6851 3.29309C44.8074 3.47556 45.9993 3.7785 47.2418 4.24817L48.6401 12.2478L50.6103 11.9034L49.8701 7.66896C50.6732 8.08178 51.4383 8.54962 52.1554 9.06881L52.1574 9.07024C56.7461 12.3751 59.2261 17.2969 59.5212 22.2387H22.4805C22.5829 20.457 22.9605 18.689 23.6301 16.9938L23.6306 16.9924C25.0906 13.2801 28.0014 9.85629 32.0024 7.72335ZM27.0199 13.8313C27.02 13.8311 27.0201 13.8309 27.8615 14.3713C28.7029 14.9117 28.703 14.9116 28.7031 14.9114L28.7005 14.9155L28.6874 14.9363C28.6753 14.9558 28.6565 14.9861 28.6321 15.0264C28.5833 15.107 28.512 15.2272 28.4263 15.3796C28.2542 15.6854 28.0264 16.1159 27.8038 16.6133C27.4878 17.3195 27.2151 18.0895 27.0926 18.7998H38.2586V20.7998H25.0928L25.0337 19.8627C24.9436 18.4339 25.489 16.8897 25.9783 15.7963C26.2317 15.2301 26.4891 14.7439 26.6833 14.3988C26.7806 14.2258 26.8628 14.0871 26.9215 13.9901C26.9509 13.9416 26.9745 13.9035 26.9912 13.8766L27.0111 13.845L27.017 13.8357L27.0189 13.8328L27.0199 13.8313Z" fill="#89BC94"/>
<path d="M60.7703 23.2387H21.2586C21.2586 23.2387 19.4782 23.298 19.4923 25.7249H62.5049C62.5261 23.298 60.7703 23.2387 60.7703 23.2387Z" fill="white"/>
<path fill-rule="evenodd" clip-rule="evenodd" d="M21.242 22.2387H60.7703L60.7703 23.2387C60.8041 22.2392 60.8048 22.2393 60.8055 22.2393L60.8069 22.2393L60.8098 22.2395L60.8163 22.2397L60.8314 22.2405C60.8423 22.2411 60.8551 22.242 60.8697 22.2431C60.8987 22.2454 60.9349 22.249 60.9772 22.2547C61.0615 22.2658 61.172 22.2852 61.3002 22.3192C61.5547 22.3865 61.8941 22.5153 62.2348 22.7638C62.9669 23.2977 63.5179 24.2438 63.5049 25.7336L63.4962 26.7249H18.4981L18.4923 25.7307C18.4836 24.2352 19.0479 23.2898 19.7871 22.7593C20.1309 22.5125 20.4727 22.3849 20.7282 22.3183C20.8571 22.2846 20.968 22.2655 21.0525 22.2544C21.0949 22.2489 21.1311 22.2453 21.1601 22.243C21.1746 22.2419 21.1874 22.2411 21.1983 22.2404L21.2132 22.2397L21.2196 22.2394L21.2226 22.2393L21.224 22.2393C21.2246 22.2393 21.2253 22.2392 21.2586 23.2387L21.2253 22.2392L21.242 22.2387ZM21.3037 24.2387C21.2888 24.2409 21.2643 24.2453 21.2331 24.2535C21.1552 24.2738 21.0528 24.3127 20.9532 24.3841C20.8816 24.4356 20.7695 24.5323 20.6738 24.7249H61.3316C61.237 24.5275 61.1254 24.4301 61.0563 24.3797C60.9607 24.3099 60.8625 24.2722 60.7884 24.2526C60.7601 24.2451 60.7377 24.2409 60.7238 24.2387H21.3037Z" fill="#89BC94"/>
</svg>
