<svg xmlns="http://www.w3.org/2000/svg" xmlns:xlink="http://www.w3.org/1999/xlink" version="1.1" width="256" height="256" viewBox="0 0 256 256" xml:space="preserve">
<desc>Created with Fabric.js 1.7.22</desc>
<defs>
</defs>
<g transform="translate(128 128) scale(0.72 0.72)" style="">
	<g style="stroke: none; stroke-width: 0; stroke-dasharray: none; stroke-linecap: butt; stroke-linejoin: miter; stroke-miterlimit: 10; fill: none; fill-rule: nonzero; opacity: 1;" transform="translate(-175.05 -175.05000000000004) scale(3.89 3.89)" >
	<path d="M 89 75.557 H 72.892 V 59.987 V 13.443 c 0 -5.268 -4.286 -9.554 -9.555 -9.554 H 9.554 C 4.286 3.889 0 8.175 0 13.443 c 0 0.552 0.448 1 1 1 h 16.109 v 45.544 v 16.569 c 0 5.269 4.286 9.555 9.554 9.555 h 53.782 c 5.269 0 9.555 -4.286 9.555 -9.555 C 90 76.004 89.553 75.557 89 75.557 z M 2.066 12.443 c 0.491 -3.694 3.662 -6.554 7.488 -6.554 s 6.998 2.86 7.489 6.554 H 2.066 z M 19.109 76.557 V 59.987 V 13.443 c 0 -3.074 -1.465 -5.805 -3.727 -7.554 h 47.955 c 4.166 0 7.555 3.389 7.555 7.554 v 46.544 v 15.569 H 35.217 c -0.552 0 -1 0.447 -1 1 c 0 4.166 -3.389 7.555 -7.554 7.555 S 19.109 80.723 19.109 76.557 z M 80.445 84.111 H 32.5 c 2.01 -1.557 3.388 -3.893 3.666 -6.555 h 35.726 h 16.043 C 87.443 81.251 84.272 84.111 80.445 84.111 z" style="stroke: none; stroke-width: 1; stroke-dasharray: none; stroke-linecap: butt; stroke-linejoin: miter; stroke-miterlimit: 10; fill: rgb(0,0,0); fill-rule: nonzero; opacity: 1;" transform=" matrix(1 0 0 1 0 0) " stroke-linecap="round" />
	<path d="M 61.196 25.546 H 29.547 c -0.552 0 -1 -0.448 -1 -1 s 0.448 -1 1 -1 h 31.649 c 0.553 0 1 0.448 1 1 S 61.749 25.546 61.196 25.546 z" style="stroke: none; stroke-width: 1; stroke-dasharray: none; stroke-linecap: butt; stroke-linejoin: miter; stroke-miterlimit: 10; fill: rgb(0,0,0); fill-rule: nonzero; opacity: 1;" transform=" matrix(1 0 0 1 0 0) " stroke-linecap="round" />
	<path d="M 61.196 37.957 H 29.547 c -0.552 0 -1 -0.448 -1 -1 s 0.448 -1 1 -1 h 31.649 c 0.553 0 1 0.448 1 1 S 61.749 37.957 61.196 37.957 z" style="stroke: none; stroke-width: 1; stroke-dasharray: none; stroke-linecap: butt; stroke-linejoin: miter; stroke-miterlimit: 10; fill: rgb(0,0,0); fill-rule: nonzero; opacity: 1;" transform=" matrix(1 0 0 1 0 0) " stroke-linecap="round" />
	<path d="M 61.196 50.368 H 29.547 c -0.552 0 -1 -0.447 -1 -1 s 0.448 -1 1 -1 h 31.649 c 0.553 0 1 0.447 1 1 S 61.749 50.368 61.196 50.368 z" style="stroke: none; stroke-width: 1; stroke-dasharray: none; stroke-linecap: butt; stroke-linejoin: miter; stroke-miterlimit: 10; fill: rgb(0,0,0); fill-rule: nonzero; opacity: 1;" transform=" matrix(1 0 0 1 0 0) " stroke-linecap="round" />
	<path d="M 51.671 67.295 c -0.16 0 -0.32 -0.038 -0.467 -0.115 c -0.323 -0.171 -0.527 -0.505 -0.533 -0.87 c -0.018 -1.166 -0.056 -2.331 -0.116 -3.496 c -0.055 0.023 -0.12 0.054 -0.195 0.094 l -7.74 4.095 c -0.489 0.26 -1.093 0.072 -1.352 -0.416 c -0.258 -0.488 -0.072 -1.094 0.416 -1.352 l 7.742 -4.096 c 1.445 -0.763 2.255 -0.267 2.608 0.101 c 0.467 0.48 0.499 1.101 0.517 1.435 c 0.03 0.596 0.056 1.192 0.076 1.789 l 8.018 -5.31 c 0.461 -0.306 1.08 -0.18 1.386 0.282 c 0.305 0.46 0.179 1.08 -0.282 1.386 l -9.525 6.308 C 52.057 67.239 51.864 67.295 51.671 67.295 z" style="stroke: none; stroke-width: 1; stroke-dasharray: none; stroke-linecap: butt; stroke-linejoin: miter; stroke-miterlimit: 10; fill: rgb(0,0,0); fill-rule: nonzero; opacity: 1;" transform=" matrix(1 0 0 1 0 0) " stroke-linecap="round" />
</g>
</g>
</svg>